<?xml version="1.0" encoding="UTF-8"?>
<!DOCTYPE svg PUBLIC "-//W3C//DTD SVG 1.1//EN" "http://www.w3.org/Graphics/SVG/1.1/DTD/svg11.dtd">
<svg version="1.1" id="Layer_1" xmlns="http://www.w3.org/2000/svg" xmlns:xlink="http://www.w3.org/1999/xlink" x="0px" y="0px" width="16px" height="16px" viewBox="0 0 16 16" enable-background="new 0 0 16 16" xml:space="preserve">
	<g>
		<line fill="none" stroke="green" stroke-width="0.65" stroke-linecap="round" x1="0.179" y1="1.090" x2="0.756" y2="11.175"/>

		<line fill="none" stroke="green" stroke-width="0.65" stroke-linecap="round" x1="0.179" y1="1.090" x2="4.852" y2="3.093"/>

		<line fill="none" stroke="green" stroke-width="0.65" stroke-linecap="round" x1="4.852" y1="3.093" x2="5.068" y2="15.632"/>

		<line fill="none" stroke="green" stroke-width="0.65" stroke-linecap="round" x1="5.068" y1="15.632" x2="0.756" y2="11.175"/>

		<line fill="none" stroke="green" stroke-width="0.65" stroke-linecap="round" x1="0.179" y1="1.090" x2="9.543" y2="0.368"/>

		<line fill="none" stroke="green" stroke-width="0.65" stroke-linecap="round" x1="9.543" y1="0.368" x2="15.821" y2="1.884"/>

		<line fill="none" stroke="green" stroke-width="0.65" stroke-linecap="round" x1="4.852" y1="3.093" x2="15.821" y2="1.884"/>

		<line fill="none" stroke="green" stroke-width="0.65" stroke-linecap="round" x1="15.821" y1="1.884" x2="15.172" y2="12.907"/>

		<line fill="none" stroke="green" stroke-width="0.65" stroke-linecap="round" x1="5.068" y1="15.632" x2="15.172" y2="12.907"/>

		<line fill="none" stroke="green" stroke-width="0.65" stroke-linecap="round" x1="3.913" y1="4.067" x2="4.040" y2="9.155"/>

		<line fill="none" stroke="green" stroke-width="0.65" stroke-linecap="round" x1="4.040" y1="9.155" x2="6.457" y2="10.995"/>

		<line fill="none" stroke="green" stroke-width="0.65" stroke-linecap="round" x1="6.457" y1="10.995" x2="6.457" y2="5.272"/>

		<line fill="none" stroke="green" stroke-width="0.65" stroke-linecap="round" x1="6.457" y1="5.272" x2="3.913" y2="4.067"/>

		<line fill="none" stroke="green" stroke-width="0.65" stroke-linecap="round" x1="3.913" y1="4.067" x2="8.659" y2="3.471"/>

		<line fill="none" stroke="green" stroke-width="0.65" stroke-linecap="round" x1="8.659" y1="3.471" x2="8.659" y2="8.325"/>

		<line fill="none" stroke="green" stroke-width="0.65" stroke-linecap="round" x1="4.040" y1="9.155" x2="8.659" y2="8.325"/>

		<line fill="none" stroke="green" stroke-width="0.65" stroke-linecap="round" x1="8.659" y1="3.471" x2="11.527" y2="4.518"/>

		<line fill="none" stroke="green" stroke-width="0.65" stroke-linecap="round" x1="11.527" y1="4.518" x2="6.457" y2="5.272"/>

		<line fill="none" stroke="green" stroke-width="0.65" stroke-linecap="round" x1="11.527" y1="4.518" x2="11.401" y2="9.912"/>

		<line fill="none" stroke="green" stroke-width="0.65" stroke-linecap="round" x1="8.659" y1="8.325" x2="11.401" y2="9.912"/>

		<line fill="none" stroke="green" stroke-width="0.65" stroke-linecap="round" x1="6.457" y1="10.995" x2="11.401" y2="9.912"/>

		<line fill="none" stroke="green" stroke-width="0.65" stroke-linecap="round" x1="6.457" y1="10.995" x2="5.068" y2="15.632"/>

		<line fill="none" stroke="green" stroke-width="0.65" stroke-linecap="round" x1="11.401" y1="9.912" x2="15.172" y2="12.907"/>

		<line fill="none" stroke="green" stroke-width="0.65" stroke-linecap="round" x1="11.527" y1="4.518" x2="15.821" y2="1.884"/>

		<line fill="none" stroke="green" stroke-width="0.65" stroke-linecap="round" x1="8.659" y1="3.471" x2="9.543" y2="0.368"/>

		<line fill="none" stroke="green" stroke-width="0.65" stroke-linecap="round" x1="0.179" y1="1.090" x2="3.913" y2="4.067"/>

		<line fill="none" stroke="green" stroke-width="0.65" stroke-linecap="round" x1="4.852" y1="3.093" x2="6.457" y2="5.272"/>

		<line fill="none" stroke="green" stroke-width="0.65" stroke-linecap="round" x1="4.040" y1="9.155" x2="0.756" y2="11.175"/>

		<line fill="none" stroke="green" stroke-width="0.65" stroke-linecap="round" x1="0.756" y1="11.175" x2="9.434" y2="9.498"/>

		<line fill="none" stroke="green" stroke-width="0.65" stroke-linecap="round" x1="9.434" y1="9.498" x2="15.172" y2="12.907"/>

		<line fill="none" stroke="green" stroke-width="0.65" stroke-linecap="round" x1="9.434" y1="9.498" x2="9.543" y2="0.368"/>

		<line fill="none" stroke="green" stroke-width="0.65" stroke-linecap="round" x1="8.659" y1="8.325" x2="9.434" y2="9.498"/>
	</g>
</svg>