<svg width="100" height="100" xmlns="http://www.w3.org/2000/svg">
	<path fill="#C9CFCF" d="m90.69501,48.621c0,5.518 -2.00801,9.281 -6.02,11.287c-1.172,0.586 -4.85001,1.379 -11.037,2.383c-4.01199,0.67 -6.01801,2.217 -6.01801,4.639v10.158c0,0.422 0.125,1.715 0.375,3.889l0.377,4.014c0,1.255 -0.293,3.306 -0.879,6.146c-1.588,0.334 -3.42799,0.709 -5.51799,1.132c-0.67001,-2.511 -1.00401,-4.224 -1.00401,-5.146c0,-0.416 0.10501,-1.04501 0.313,-1.882c0.207,-0.834 0.31601,-1.461 0.31601,-1.883c0,-0.58 -0.52,-2.21301 -1.55901,-4.887h-1.94499c-0.258,0.418 -0.34399,0.961 -0.26001,1.629c0.33401,1.422 0.45901,2.633 0.37701,3.637c-1.42203,1.004 -3.38702,2.341 -5.89502,4.013c-0.586,-0.166 -0.793,-0.25 -0.629,-0.25v-8.904c-0.164,-0.416 -0.58398,-0.581 -1.254,-0.502h-1.504l-1.504,11.78699c-1.17401,0.084 -2.59201,0.084 -4.26401,0c-0.58798,-2.758 -1.63098,-6.853 -3.13498,-12.289h-1.00403c-0.922,2.929 -1.422,4.519 -1.50598,4.769c0,0.334 0.104,0.981 0.314,1.942c0.207,0.962 0.31299,1.609 0.31299,1.943c0,0.25 -0.08398,0.877 -0.25,1.881l-0.37698,3.01c-0.168,0.166 -0.37701,0.25 -0.62701,0.25c-2.508,0 -4.18198,-0.627 -5.01599,-1.87901c-0.836,-1.256 -1.172,-3.01199 -1.004,-5.271l1.004,-15.047c0,-0.25201 0.082,-0.58601 0.25,-1.00401c0.164,-0.418 0.25,-0.711 0.25,-0.877c0,-0.67 -0.711,-2.008 -2.13101,-4.014c-0.24799,-0.082 -1.54898,-0.377 -3.88699,-0.879c-1.42398,-0.334 -4.22501,-0.918 -8.40201,-1.756c-5.771,-1.084 -8.65399,-5.725 -8.65399,-13.92c0,-12.207 5.01801,-22.365 15.05099,-30.475c0.414,2.258 1.12701,5.266 2.129,9.029c0.754,0.17 2.38501,0.545 4.89102,1.129c0.504,0.168 3.05298,1.088 7.65198,2.76c-2.34399,-1.422 -5.39297,-3.719 -9.15598,-6.898c-1.422,-1.672 -2.13303,-4.471 -2.13303,-8.4c0,-0.92 1.59003,-2.008 4.76801,-3.264c2.84,-1.17 4.97501,-1.836 6.396,-2.006c4.51401,-0.582 7.98401,-0.879 10.41,-0.879c10.44901,0 18.89101,2.678 25.328,8.029c-2.088,2.426 -5.68399,5.014 -10.78299,7.773c2.008,0.084 4.93399,-0.707 8.77899,-2.383c3.84401,-1.67 5.47501,-2.508 4.89101,-2.508c0.668,0 2.008,1.34 4.01399,4.014c1.50401,2.006 2.71501,3.807 3.63701,5.391c2.674,4.768 4.47099,9.908 5.39299,15.426c0,1.926 0.041,3.305 0.125,4.139v1.004h0.00201l0,0zm-48.03101,2.258c0,-3.594 -1.56799,-7.002 -4.703,-10.223c-3.13699,-3.219 -6.50198,-4.826 -10.09601,-4.826c-3.17798,0 -5.97699,1.348 -8.40198,4.039c-2.42603,2.693 -3.63702,5.682 -3.63702,8.963c0,2.859 1.379,4.713 4.13901,5.553c1.75601,0.506 4.21899,0.801 7.39801,0.883h6.89798c5.59802,0.084 8.40302,-1.379 8.40302,-4.389zm13.668,15.553v-3.889c-0.58401,-1.086 -1.17001,-2.215 -1.754,-3.387c-0.50201,-1.674 -1.422,-4.014 -2.76001,-7.025l-1.38098,14.674c0,1.172 -0.25,1.756 -0.75201,1.756c-0.33398,0 -0.58398,-0.082 -0.75198,-0.248c-0.58603,-8.863 -0.87903,-12.709 -0.87903,-11.541v-4.387c-0.168,-0.254 -0.375,-0.379 -0.625,-0.379c-2.84399,2.93 -4.26398,7.652 -4.26398,14.172c0,3.596 0.32999,5.811 1.00198,6.64799c0.67001,-0.166 1.422,-0.459 2.258,-0.877c0.33401,-0.168 1.29501,-0.252 2.88702,-0.252c1.58398,0 3.50998,0.502 5.76599,1.504c0.836,0 1.254,-2.256 1.254,-6.769zm28.34399,-17.475c0,-3.367 -1.254,-6.375 -3.76199,-9.025c-2.50999,-2.648 -5.395,-3.975 -8.65201,-3.975c-3.51199,0 -6.795,1.607 -9.84599,4.826c-3.05299,3.219 -4.57799,6.584 -4.57799,10.096c0,2.928 1.41998,4.389 4.26399,4.389h14.422c5.433,-0.082 8.15199,-2.186 8.15199,-6.311z"/>
</svg>