<svg width="100" height="100" xmlns="http://www.w3.org/2000/svg">
	<circle fill="#C1D7E9" r="50" cy="50" cx="50"/>
	<path fill="#0D0F0F" d="m67.48801,83.719c-4.78699,4.87099 -10.68399,7.307 -17.68799,7.307c-7.86102,0 -14.09802,-2.69 -18.711,-8.073c-4.35901,-5.12701 -6.53702,-11.662 -6.53702,-19.606c0,-8.543 3.71701,-18.286 11.14999,-29.224c6.06403,-8.969 13.19901,-16.83 21.40201,-23.58c-1.19699,5.469 -1.793,9.355 -1.793,11.662c0,5.299 1.664,10.467 4.996,15.508c4.10199,5.98 7.21899,10.426 9.35699,13.328c3.332,5.043 4.99802,9.955 4.99802,14.737c0.00198,7.093 -2.39102,13.074 -7.17401,17.941zm-0.129,-27.362c-1.28101,-2.861 -2.77701,-4.762 -4.48599,-5.703c0.25598,0.514 0.38498,1.24 0.38498,2.18c0,1.795 -0.51199,4.357 -1.53897,7.689l-1.664,5.127c0,2.99 1.49197,4.486 4.48398,4.486c3.16,0 4.742,-2.095 4.742,-6.281c0,-2.134 -0.64001,-4.632 -1.922,-7.498z"/>
</svg>