<svg width="100" height="100" xmlns="http://www.w3.org/2000/svg">
	<circle fill="#A3C095" r="50" cy="50" cx="50"/>
	<path fill="#0D0F0F" d="m93.762,56.225c0,1.668 -0.645,3.164 -1.936,4.498c-1.289,1.332 -2.77,1.998 -4.436,1.998c-2.662,0 -4.623,-1.25 -5.869,-3.748l-5.87099,-0.25c-1.252,0 -3.709,0.543 -7.371,1.625c-3.91399,1.082 -6.164,1.957 -6.746,2.623c-0.916,0.998 -1.664,3.332 -2.248,6.996c-0.502,2.99799 -0.748,5.20499 -0.748,6.62099c0,2.246 0.352,3.89301 1.061,4.93401s2.166,1.916 4.371,2.62299c2.20499,0.707 3.561,1.104 4.061,1.187c0.332,0 0.873,-0.041 1.625,-0.125h1.498c1.08,0 2.205,0.17 3.373,0.5c1.666,0.5 2.375,1.166 2.125,2c-1.168,-0.166 -3.207,0.084 -6.121,0.75l3.496,1.748c0,1 -1.416,1.498 -4.246,1.498c-0.752,0 -1.771,-0.166 -3.063,-0.498c-1.291,-0.336 -2.145,-0.5 -2.55899,-0.5h-1.625c-0.082,0.832 -0.334,2.08 -0.75,3.74599c-1.418,-0.084 -3.08,-0.918 -4.996,-2.49799c-1.918,-1.58 -3.123,-2.373 -3.621,-2.373c-0.502,0 -1.211,0.793 -2.125,2.373c-0.918,1.57999 -1.375,2.66399 -1.375,3.24799c-1.082,-0.584 -1.996,-1.668 -2.75,-3.24799c-0.332,-1.084 -0.707,-2.166 -1.121,-3.248c-0.832,0.084 -2.375,1.834 -4.621,5.248h-0.627c-0.166,-0.25201 -0.795,-2 -1.87299,-5.248c-2.582,-0.832 -4.996,-1.248 -7.246,-1.248c-1.082,0 -2.748,0.25 -4.996,0.748l-3.496,-0.248c0.498,-0.5 1.955,-1.457 4.371,-2.873c2.83,-1.666 4.996,-2.5 6.496,-2.5c0.246,0 0.578,0.043 1,0.125c0.414,0.086 0.75,0.125 1,0.125c0.578,0 1.518,-0.312 2.809,-0.938c1.291,-0.623 2.039,-1.186 2.246,-1.68401c0.211,-0.504 0.316,-1.793 0.316,-3.875c0,-4.74599 -1.25,-8.285 -3.75,-10.617c-2.16801,-2.082 -5.746,-3.58 -10.744,-4.498c-1.332,4.746 -5.08,7.123 -11.24,7.123c-2,0 -3.998,-1.207 -5.996,-3.623c-1.996,-2.416 -2.996,-4.623 -2.996,-6.621c0,-3.082 1.287,-5.621 3.869,-7.623c-2.08,-2.162 -3.121,-4.369 -3.121,-6.617c0,-2.084 0.643,-3.914 1.936,-5.5c1.29099,-1.578 2.977,-2.496 5.059,-2.748c-0.166,-2.662 0.707,-4.496 2.623,-5.496c-0.916,-0.914 -1.373,-2.537 -1.373,-4.869c0,-2.748 0.916,-5.039 2.748,-6.871c1.82999,-1.832 4.12099,-2.75 6.869,-2.75c3,0 5.457,1.045 7.371,3.125c2.416,-8.244 7.621,-12.367 15.613,-12.367c4.164,0 7.828,1.666 10.994,4.998c1.166,1.248 1.748,1.916 1.748,1.996c-1,0 -0.498,-0.188 1.5,-0.561c1.996,-0.375 3.453,-0.563 4.373,-0.563c3.246,0 6.119,1.207 8.619,3.623c2.164,2.166 3.664,4.912 4.498,8.244c0.58,0.084 1.498,0.332 2.748,0.748c1.82999,0.92 2.748,2.498 2.748,4.748c0,0.418 -0.33601,1.209 -1,2.373c5.328,2.998 7.994,7.162 7.994,12.492c0,1.498 -0.582,3.584 -1.748,6.247c2.166,1.247 3.246,3.081 3.246,5.495zm-51.467,5.496v-1.623c0,-1.914 -0.936,-3.664 -2.809,-5.246c-1.875,-1.582 -3.77,-2.373 -5.684,-2.373c-2.334,0 -4.496,0.541 -6.496,1.621c4.413,-0.248 9.411,2.293 14.989,7.621zm-2.24599,-15.489c-1.25,-1.418 -2.332,-2.875 -3.25,-4.373c-3.498,0.916 -5.246,1.957 -5.246,3.121c1,-0.08 2.457,0.105 4.371,0.564c1.91399,0.459 3.29099,0.688 4.125,0.688zm7.62099,-3.873v-5.496c-2,-0.332 -3.211,-0.5 -3.623,-0.5v1.873l3.623,4.123zm16.238,-3.498c-1,-0.416 -2.875,-1.25 -5.621,-2.498v10.742c3.912,-2.25 5.785,-4.998 5.621,-8.244zm6.867,14.741l-2.746,-3.373c-1.66399,1.167 -3.352,2.354 -5.061,3.561c-1.709,1.207 -3.186,2.563 -4.432,4.06c3.747,-2.002 7.82901,-3.414 12.239,-4.248z"/>
</svg>