<svg width="100" height="100" xmlns="http://www.w3.org/2000/svg">
	<circle fill="#E49977" r="50" cy="50" cx="50"/>
	<path fill="#0D0F0F" d="m91.965,66.617c-3.736,8.912 -11.16,13.367 -22.27499,13.367c-2.037,0 -4.246,0.254 -6.621,0.762c-3.564,0.764 -5.34599,1.828 -5.34599,3.186c0,0.424 0.295,0.91 0.89099,1.463c0.592,0.553 1.104,0.826 1.52701,0.826c-2.123,0 -0.68001,0.064 4.32599,0.191c5.00801,0.127 8.14801,0.19099 9.42201,0.19099c-7.38301,4.326 -19.73201,6.319 -37.04301,5.981c-5.68799,-0.084 -10.56599,-2.588 -14.63899,-7.51c-3.992,-4.669 -5.98399,-9.888 -5.98399,-15.658c0,-6.108 2.05699,-11.308 6.17599,-15.595c4.11299,-4.282 9.229,-6.427 15.338,-6.427c1.35699,0 3.16,0.297 5.41,0.891c2.248,0.594 3.756,0.891 4.51799,0.891c3.13901,0 7.04501,-1.293 11.71301,-3.883c4.666,-2.588 6.875,-3.883 6.62099,-3.883c-0.84999,8.912 -3.81999,14.896 -8.91399,17.948c-3.64801,2.123 -5.47301,4.201 -5.47301,6.236c0,1.27299 0.76401,2.293 2.291,3.057c1.188,0.595 2.502,0.892 3.94501,0.892c2.20699,0 4.37099,-1.356 6.49399,-4.071c2.119,-2.718 3.05501,-5.177 2.80101,-7.386c-0.254,-2.545 -0.084,-5.603 0.50999,-9.164c0.168,-1.02 0.783,-2.27 1.84399,-3.754c1.061,-1.486 2.01601,-2.398 2.86501,-2.738c0,0.762 -0.27499,2.037 -0.828,3.818c-0.55299,1.781 -0.826,3.1 -0.826,3.947c0,1.867 0.50801,3.309 1.52701,4.326c1.52499,-0.592 2.883,-2.502 4.07401,-5.729c1.01599,-2.459 1.60899,-4.836 1.78099,-7.127c-3.56599,-0.17 -6.98199,-1.781 -10.248,-4.838c-3.26799,-3.057 -4.89999,-6.365 -4.89999,-9.928c0,-0.594 0.082,-1.188 0.256,-1.783c0.508,0.764 1.271,1.953 2.289,3.564c1.44299,2.121 2.547,3.182 3.313,3.182c1.01599,0 1.52499,-1.061 1.52499,-3.182c0,-2.715 -0.72299,-5.176 -2.164,-7.383c-1.61299,-2.631 -3.69299,-3.947 -6.23799,-3.947c-1.18901,0 -2.97101,0.637 -5.34401,1.91c-2.379,1.271 -4.543,1.91 -6.49199,1.91c-0.59601,0 -3.229,-0.766 -7.895,-2.293c8.23,-1.355 12.34799,-2.586 12.34799,-3.691c0,-2.885 -5.64499,-4.838 -16.92999,-5.855c-1.105,-0.084 -3.14101,-0.254 -6.11101,-0.51c0.33801,-0.424 2.75801,-0.891 7.25801,-1.4c3.81799,-0.422 6.49199,-0.637 8.01799,-0.637c20.19701,0 33.01201,9.805 38.44301,29.408c0.934,-0.773 1.402,-2.066 1.402,-3.871c0,-2.324 -0.68,-5.25 -2.037,-8.777c-0.512,-1.375 -1.318,-3.441 -2.42,-6.193c6.957,8.867 10.439,17.27 10.439,25.199c0,4.178 -0.979,7.973 -2.93,11.381c-1.27,2.303 -3.64999,5.244 -7.127,8.826c-3.48,3.58 -5.85699,6.352 -7.131,8.313c4.668,-1.271 7.725,-2.248 9.168,-2.928c3.223,-1.43999 6.15,-3.606 8.783,-6.492c0,1.106 -0.467,2.762 -1.4,4.967zm-55.502,-50.025c0,1.525 -0.84999,2.502 -2.545,2.926l-3.311,0.51c-1.189,0.594 -2.92799,2.928 -5.21899,7c-0.256,-1.271 -0.63699,-3.053 -1.146,-5.346c-0.76401,0.086 -2.035,0.764 -3.81801,2.037c-0.76399,0.594 -1.996,1.484 -3.69299,2.672c0.51199,-3.055 2.207,-6.148 5.09399,-9.293c3.05501,-3.477 6.02501,-5.217 8.91,-5.217c3.81799,0 5.728,1.572 5.728,4.711zm22.15001,11.709c0,1.443 -0.785,2.654 -2.355,3.629c-1.57001,0.977 -3.119,1.465 -4.646,1.465c-2.037,0 -3.86301,-1.146 -5.47301,-3.438c-1.955,-2.801 -3.94699,-4.625 -5.98399,-5.477c0.424,-0.422 0.93399,-0.635 1.52899,-0.635c0.76401,0 2.05501,0.594 3.881,1.781c1.82401,1.189 2.99001,1.783 3.50201,1.783c0.424,0 1.12299,-0.594 2.09999,-1.783c0.97501,-1.188 2.05701,-1.781 3.246,-1.781c2.79999,0.001 4.2,1.487 4.2,4.456z"/>
</svg>