<svg width="100" height="100" xmlns="http://www.w3.org/2000/svg">
	<circle fill="#F8F6D8" r="50" cy="50" cx="50"/>
	<path fill="#0D0F0F" d="m97.69101,57.064c-6.561,-3.699 -10.76801,-5.551 -12.617,-5.551c-1.34399,0 -2.39499,1.032 -3.15399,3.092c-0.758,2.063 -2.26999,3.09 -4.54102,3.09c-0.92599,0 -2.81799,-0.336 -5.67798,-1.008c-1.59802,2.44 -2.39801,3.996 -2.39801,4.668c0,0.926 0.689,2.016 2.064,3.281c1.375,1.262 2.535,1.891 3.48199,1.891c0.60202,0 1.41602,-0.125 2.44901,-0.379c1.03101,-0.25 1.72101,-0.377 2.064,-0.377c1.03302,0 1.547,1.893 1.547,5.67799c0,3.617 -0.84,9.168 -2.52298,16.654c-2.18802,-8.57999 -4.5,-12.87099 -6.93802,-12.87099c-0.33798,0 -1.03098,0.252 -2.082,0.75999c-1.05298,0.50201 -1.82999,0.75401 -2.33398,0.75401c-2.43799,0 -4.625,-2.22701 -6.561,-6.688c-3.86899,0.59 -5.80499,2.567 -5.80499,5.934c0,1.68401 0.77701,3.027 2.336,4.035c1.55301,1.008 2.33398,1.727 2.33398,2.145c0,2.273 -3.32397,5.764 -9.96899,10.473c-3.53101,2.523 -5.97299,4.289 -7.31601,5.297c1.17401,-1.512 2.35202,-3.487 3.53302,-5.928c1.34399,-2.775 2.01801,-4.92 2.01801,-6.436c0,-0.84 -0.96701,-2.02 -2.90201,-3.533c-1.936,-1.512 -2.89999,-3.111 -2.89999,-4.793c0,-1.428 0.50198,-3.193 1.51199,-5.299c-1.09399,-1.262 -2.39499,-1.895 -3.91,-1.895c-3.36499,0 -5.04498,1.096 -5.04498,3.28c0,-1.514 0,-0.379 0,3.40601c0.08197,2.77599 -2.02002,4.16399 -6.311,4.16399c-3.27902,0 -8.79102,-0.759 -16.52704,-2.271c8.74802,-2.188 13.12103,-4.711 13.12103,-7.57c0,0.336 -0.168,-0.672 -0.504,-3.028c-0.33801,-2.604 1.51401,-4.961 5.55099,-7.063c-0.758,-3.867 -2.77301,-5.806 -6.05701,-5.806c-0.504,0 -1.43201,0.884 -2.77499,2.647c-1.34601,1.771 -2.60699,2.652 -3.78299,2.652c-2.02002,0 -4.62903,-2.186 -7.82202,-6.563c-1.51599,-2.184 -3.83002,-5.424 -6.94098,-9.715c1.93396,1.012 3.86902,2.02 5.80499,3.031c2.52301,1.176 4.54102,1.766 6.05701,1.766c1.17798,0 2.33398,-1.031 3.46899,-3.092c1.13501,-2.061 2.629,-3.092 4.479,-3.092c0.254,0 1.936,0.504 5.047,1.516c1.59601,-2.439 2.39798,-4.248 2.39798,-5.426c0,-1.01 -0.61099,-2.166 -1.82999,-3.471c-1.22101,-1.303 -2.33398,-1.955 -3.34399,-1.955c-0.422,0 -1.07199,0.125 -1.957,0.379c-0.88101,0.252 -1.53299,0.379 -1.953,0.379c-1.51599,0 -2.27301,-1.893 -2.27301,-5.678c0,-1.01 0.96899,-6.77 2.90402,-17.285c-0.086,1.26 0.461,3.617 1.63898,7.064c1.43002,4.207 3.11102,6.309 5.04901,6.309c0.33398,0 1.008,-0.252 2.01801,-0.758c1.008,-0.504 1.80701,-0.754 2.396,-0.754c1.93399,0 3.53101,1.094 4.79498,3.277l1.89301,3.406c1.76602,0 3.23801,-0.629 4.414,-1.891c1.17801,-1.262 1.76801,-2.777 1.76801,-4.543c0,-1.85 -0.77701,-3.26 -2.33398,-4.227c-1.55902,-0.967 -2.336,-1.703 -2.336,-2.207c0,-1.768 2.77698,-4.752 8.32797,-8.958c4.457,-3.363 7.35901,-5.34 8.707,-5.93c-3.61697,4.879 -5.42599,8.451 -5.42599,10.724c0,1.178 0.71301,2.441 2.14502,3.785c1.76599,1.598 2.77499,2.734 3.02698,3.406c0.84,1.938 0.75601,4.586 -0.25198,7.949c2.271,1.6 3.99399,2.396 5.17398,2.396c2.436,0 3.65802,-1.264 3.65802,-3.785c0,-0.252 -0.10501,-1.051 -0.314,-2.396c-0.21301,-1.344 -0.27301,-2.102 -0.19101,-2.271c0.336,-1.178 2.64999,-1.768 6.939,-1.768c2.69101,0 8.28299,0.758 16.78101,2.273c-1.85199,0.504 -4.62701,1.26 -8.32599,2.27c-3.36502,1.01 -5.04901,2.145 -5.04901,3.406c0,0.59 0.20898,1.598 0.63098,3.027c0.42001,1.432 0.63303,2.48 0.63303,3.156c0,1.176 -0.75803,2.27 -2.271,3.277l-4.29102,3.031c1.01001,1.852 1.68201,2.945 2.01999,3.279c0.84,1.008 1.97501,1.514 3.40601,1.514c1.01001,0 1.93399,-0.883 2.77499,-2.648c0.84003,-1.768 2.18802,-2.65 4.03702,-2.65c2.26999,0 4.83798,2.104 7.69699,6.311c1.59299,2.36 4.07498,5.933 7.44,10.727zm-28.00702,-7.316c0,-5.381 -1.979,-10.051 -5.93201,-14.006c-3.953,-3.953 -8.621,-5.93 -14.004,-5.93c-5.46899,0 -10.17999,1.957 -14.13098,5.869c-3.953,3.91 -5.97302,8.6 -6.05502,14.066c-0.086,5.383 1.91202,10.03 5.992,13.938c4.08002,3.912 8.811,5.869 14.19299,5.869c5.71902,0 10.492,-1.873 14.31802,-5.615c3.82999,-3.74 5.70099,-8.47 5.61899,-14.191zm-1.89301,0c0,5.131 -1.72501,9.381 -5.17398,12.74c-3.45102,3.367 -7.74002,5.049 -12.86902,5.049c-4.96298,0 -9.211,-1.723 -12.742,-5.174c-3.53101,-3.445 -5.29898,-7.652 -5.29898,-12.615c0,-4.877 1.785,-9.064 5.35898,-12.553c3.578,-3.49 7.80301,-5.238 12.68201,-5.238c4.87701,0 9.104,1.766 12.67999,5.301c3.57404,3.533 5.36301,7.695 5.36301,12.49z"/>
</svg>